<svg xmlns="http://www.w3.org/2000/svg" viewBox="0 0 180 230" fill="none" stroke="#3a9fa8" stroke-width="3" stroke-linecap="round" stroke-linejoin="round" width="80" height="80">
  <!-- Stem -->
  <line x1="90" y1="200" x2="90" y2="60"/>
  <!-- Roots -->
  <line x1="90" y1="200" x2="65" y2="220"/>
  <line x1="90" y1="200" x2="115" y2="220"/>
  <line x1="90" y1="200" x2="90" y2="225"/>
  <!-- Leaves along stem -->
  <ellipse cx="78" cy="170" rx="16" ry="8" transform="rotate(-30 78 170)"/>
  <ellipse cx="102" cy="155" rx="16" ry="8" transform="rotate(30 102 155)"/>
  <ellipse cx="78" cy="138" rx="16" ry="8" transform="rotate(-30 78 138)"/>
  <ellipse cx="102" cy="123" rx="16" ry="8" transform="rotate(30 102 123)"/>
  <ellipse cx="78" cy="106" rx="14" ry="7" transform="rotate(-30 78 106)"/>
  <ellipse cx="102" cy="92" rx="14" ry="7" transform="rotate(30 102 92)"/>
  <!-- Flower buds at top -->
  <ellipse cx="90" cy="45" rx="8" ry="16"/>
  <ellipse cx="75" cy="52" rx="7" ry="14" transform="rotate(-15 75 52)"/>
  <ellipse cx="105" cy="52" rx="7" ry="14" transform="rotate(15 105 52)"/>
  <ellipse cx="62" cy="65" rx="6" ry="12" transform="rotate(-25 62 65)"/>
  <ellipse cx="118" cy="65" rx="6" ry="12" transform="rotate(25 118 65)"/>
  <!-- Bubbles -->
  <circle cx="145" cy="30" r="8" stroke-width="2.5"/>
  <circle cx="160" cy="55" r="5" stroke-width="2.5"/>
  <circle cx="152" cy="75" r="3.5" stroke-width="2"/>
  <circle cx="30" cy="45" r="6" stroke-width="2.5"/>
  <circle cx="20" cy="70" r="4" stroke-width="2"/>
</svg>
